<?xml version="1.0" encoding="UTF-8" standalone="no"?>
<svg
   xmlns:dc="http://purl.org/dc/elements/1.1/"
   xmlns:cc="http://creativecommons.org/ns#"
   xmlns:rdf="http://www.w3.org/1999/02/22-rdf-syntax-ns#"
   xmlns:svg="http://www.w3.org/2000/svg"
   xmlns="http://www.w3.org/2000/svg"
   xmlns:xlink="http://www.w3.org/1999/xlink"
   xmlns:sodipodi="http://sodipodi.sourceforge.net/DTD/sodipodi-0.dtd"
   xmlns:inkscape="http://www.inkscape.org/namespaces/inkscape"
   width="119.45518"
   height="77.645889"
   viewBox="0 0 95.564145 62.116711"
   version="1.1"
   id="svg2"
   inkscape:version="0.91 r13725"
   sodipodi:docname="en.svg">
  <metadata
     id="metadata21689">
    <rdf:RDF>
      <cc:Work
         rdf:about="">
        <dc:format>image/svg+xml</dc:format>
        <dc:type
           rdf:resource="http://purl.org/dc/dcmitype/StillImage" />
        <dc:title></dc:title>
      </cc:Work>
    </rdf:RDF>
  </metadata>
  <defs
     id="defs21687">
    <linearGradient
       xlink:href="#linearGradient3136"
       id="linearGradient3139" />
    <linearGradient
       id="linearGradient3136">
      <stop
         style="stop-color: rgb(0, 0, 0); stop-opacity: 1;"
         offset="0"
         id="stop3137" />
      <stop
         style="stop-color: rgb(255, 255, 255); stop-opacity: 1;"
         offset="1"
         id="stop3138" />
    </linearGradient>
    <linearGradient
       xlink:href="#linearGradient3136-1"
       id="linearGradient3139-0" />
    <linearGradient
       id="linearGradient3136-1">
      <stop
         style="stop-color: rgb(0, 0, 0); stop-opacity: 1;"
         offset="0"
         id="stop3137-7" />
      <stop
         style="stop-color: rgb(255, 255, 255); stop-opacity: 1;"
         offset="1"
         id="stop3138-4" />
    </linearGradient>
    <polygon
       points="5.29007,7.28115 0,4 -5.29007,7.28115 -3.80423,1.23607 -8.55951,-2.78115 -2.35114,-3.23607 0,-9 2.35114,-3.23607 8.55951,-2.78115 3.80423,1.23607 "
       id="Star5" />
    <polygon
       points="8.77435,2.00269 3.12733,2.49396 3.90495,8.10872 0,4 -3.90495,8.10872 -3.12733,2.49396 -8.77435,2.00269 -3.89971,-0.890084 -7.03648,-5.61141 -1.73553,-3.60388 0,-9 1.73553,-3.60388 7.03648,-5.61141 3.89971,-0.890084 "
       id="Star7" />
    <marker
       id="ArrowEnd"
       viewBox="0 0 10 10"
       refX="0"
       refY="5"
       markerUnits="strokeWidth"
       markerWidth="4"
       markerHeight="3"
       orient="auto">
      <path
         d="M 0,0 10,5 0,10 0,0 Z"
         id="path7"
         inkscape:connector-curvature="0" />
    </marker>
    <marker
       id="ArrowStart"
       viewBox="0 0 10 10"
       refX="10"
       refY="5"
       markerUnits="strokeWidth"
       markerWidth="4"
       markerHeight="3"
       orient="auto">
      <path
         d="M 10,0 0,5 10,10 10,0 Z"
         id="path10"
         inkscape:connector-curvature="0" />
    </marker>
    <radialGradient
       xlink:href="#linearGradient3283"
       spreadMethod="pad"
       r="0.40559572"
       id="radialGradient3392"
       gradientUnits="objectBoundingBox"
       fy="0.57030219"
       fx="0.60478765"
       cy="0.57030219"
       cx="0.60478765" />
    <linearGradient
       xlink:href="#linearGradient3363"
       id="linearGradient3367" />
    <radialGradient
       xlink:href="#linearGradient3363"
       spreadMethod="pad"
       r="0.39067781"
       id="radialGradient3366"
       gradientUnits="objectBoundingBox"
       fy="0.75000024"
       fx="0.61077869"
       cy="0.75000024"
       cx="0.61077869" />
    <linearGradient
       id="linearGradient3363">
      <stop
         style="stop-color: rgb(149, 45, 26); stop-opacity: 1;"
         offset="0.000000"
         id="stop3364" />
      <stop
         style="stop-color: rgb(82, 9, 0); stop-opacity: 1;"
         offset="1.000000"
         id="stop3365" />
    </linearGradient>
    <linearGradient
       id="linearGradient3283">
      <stop
         id="stop3285"
         offset="0.000000"
         style="stop-color: rgb(255, 239, 93); stop-opacity: 1;" />
      <stop
         id="stop3287"
         offset="1.000000"
         style="stop-color: rgb(234, 87, 0); stop-opacity: 1;" />
    </linearGradient>
    <linearGradient
       id="linearGradient4540">
      <stop
         id="stop4542"
         offset="0"
         style="stop-color: rgb(35, 184, 0); stop-opacity: 1;" />
      <stop
         id="stop4544"
         offset="1"
         style="stop-color: rgb(70, 199, 0); stop-opacity: 1;" />
    </linearGradient>
    <radialGradient
       inkscape:collect="always"
       xlink:href="#linearGradient3363"
       id="radialGradient36819"
       gradientUnits="userSpaceOnUse"
       gradientTransform="matrix(0.02446883,0,0,0.01630414,630.77061,137.21032)"
       cx="585.90747"
       cy="259.13477"
       fx="585.90747"
       fy="259.13477"
       r="111.686" />
    <radialGradient
       inkscape:collect="always"
       xlink:href="#linearGradient3363"
       id="radialGradient36825"
       gradientUnits="userSpaceOnUse"
       gradientTransform="matrix(0.02446883,0,0,0.02682834,630.77061,134.66921)"
       cx="590.30145"
       cy="180.27222"
       fx="590.30145"
       fy="180.27222"
       r="25.538342" />
    <radialGradient
       inkscape:collect="always"
       xlink:href="#linearGradient3283"
       id="radialGradient36909"
       gradientUnits="userSpaceOnUse"
       gradientTransform="matrix(0.02446883,0,0,0.01629861,630.77061,137.21239)"
       cx="221.82935"
       cy="259.20911"
       fx="221.82935"
       fy="259.20911"
       r="111.61185" />
    <radialGradient
       inkscape:collect="always"
       xlink:href="#linearGradient3283"
       id="radialGradient36917"
       gradientUnits="userSpaceOnUse"
       gradientTransform="matrix(0.02446883,0,0,0.02801228,630.77061,134.45519)"
       cx="217.71613"
       cy="180.44028"
       fx="217.71613"
       fy="180.44028"
       r="24.605782" />
    <radialGradient
       inkscape:collect="always"
       xlink:href="#linearGradient3283"
       id="radialGradient37664"
       gradientUnits="userSpaceOnUse"
       gradientTransform="matrix(0.02446883,0,0,0.02801228,630.77061,134.45519)"
       cx="217.71613"
       cy="180.44028"
       fx="217.71613"
       fy="180.44028"
       r="24.605782" />
    <radialGradient
       inkscape:collect="always"
       xlink:href="#linearGradient3283"
       id="radialGradient37666"
       gradientUnits="userSpaceOnUse"
       gradientTransform="matrix(0.02446883,0,0,0.01629861,630.77061,137.21239)"
       cx="221.82935"
       cy="259.20911"
       fx="221.82935"
       fy="259.20911"
       r="111.61185" />
    <radialGradient
       inkscape:collect="always"
       xlink:href="#linearGradient3363"
       id="radialGradient37668"
       gradientUnits="userSpaceOnUse"
       gradientTransform="matrix(0.02446883,0,0,0.02682834,630.77061,134.66921)"
       cx="590.30145"
       cy="180.27222"
       fx="590.30145"
       fy="180.27222"
       r="25.538342" />
    <radialGradient
       inkscape:collect="always"
       xlink:href="#linearGradient3363"
       id="radialGradient37670"
       gradientUnits="userSpaceOnUse"
       gradientTransform="matrix(0.02446883,0,0,0.01630414,630.77061,137.21032)"
       cx="585.90747"
       cy="259.13477"
       fx="585.90747"
       fy="259.13477"
       r="111.686" />
    <marker
       orient="auto"
       markerHeight="3"
       markerWidth="4"
       markerUnits="strokeWidth"
       refY="5"
       refX="10"
       viewBox="0 0 10 10"
       id="ArrowStart-4">
      <path
         id="path10-5"
         d="M 10,0 0,5 10,10 10,0 Z"
         inkscape:connector-curvature="0" />
    </marker>
    <marker
       orient="auto"
       markerHeight="3"
       markerWidth="4"
       markerUnits="strokeWidth"
       refY="5"
       refX="0"
       viewBox="0 0 10 10"
       id="ArrowEnd-0">
      <path
         id="path7-0"
         d="M 0,0 10,5 0,10 0,0 Z"
         inkscape:connector-curvature="0" />
    </marker>
    <style
       id="style6"
       type="text/css" />
    <linearGradient
       spreadMethod="pad"
       gradientUnits="objectBoundingBox"
       xlink:href="#linearGradient684"
       id="linearGradient687"
       y2="0"
       x2="1"
       y1="0"
       x1="0" />
    <linearGradient
       spreadMethod="pad"
       gradientUnits="objectBoundingBox"
       id="linearGradient684"
       y2="0"
       x2="1"
       y1="0"
       x1="0">
      <stop
         id="stop685"
         offset="0.00000000"
         style="stop-color:#000000;stop-opacity:1;" />
      <stop
         id="stop686"
         offset="1.00000000"
         style="stop-color:#ffffff;stop-opacity:1;" />
    </linearGradient>
    <clipPath
       id="id0-0">
      <path
         id="path7-8"
         d="m 8633510,5714190 c -24600,1540 -49320,2310 -74220,2310 -543320,0 -1805320,-278760 -2291740,-696690 -509520,386070 -1792310,696690 -2326840,696690 -25070,0 -49840,-3070 -74390,-7570 -1240,121770 5090,247990 12650,362790 28280,429090 103540,859700 217800,1274050 359680,1304120 1095870,2412390 2151410,3253100 1056450,-841400 1793430,-1950700 2153930,-3255750 114440,-414300 189940,-844870 218490,-1273940 7470,-112460 13760,-235680 12910,-354990 z"
         inkscape:connector-curvature="0" />
    </clipPath>
    <clipPath
       id="id0">
      <path
         id="path7-7"
         d="m 8633510,5714190 c -24600,1540 -49320,2310 -74220,2310 -543320,0 -1805320,-278760 -2291740,-696690 -509520,386070 -1792310,696690 -2326840,696690 -25070,0 -49840,-3070 -74390,-7570 -1240,121770 5090,247990 12650,362790 28280,429090 103540,859700 217800,1274050 359680,1304120 1095870,2412390 2151410,3253100 1056450,-841400 1793430,-1950700 2153930,-3255750 114440,-414300 189940,-844870 218490,-1273940 7470,-112460 13760,-235680 12910,-354990 z"
         inkscape:connector-curvature="0" />
    </clipPath>
    <style
       id="style4711"
       type="text/css" />
    <clipPath
       id="id0-8">
      <path
         id="path2475"
         d="m 6500000,15909400 801930,0 c 189250,-89820 580580,-490790 580580,-490790 1077790,-1491570 -269440,-1504410 -269440,-1504410 l -1113070,0 -1113070,0 c 0,0 -1347230,12840 -266240,1504410 0,0 388130,400970 577380,490790 l 801930,0 z"
         inkscape:connector-curvature="0" />
    </clipPath>
    <clipPath
       id="border">
      <rect
         id="rect9078"
         height="15"
         width="30"
         y="-7.5"
         x="-15" />
    </clipPath>
    <clipPath
       id="border-1">
      <rect
         id="rect11635"
         height="15"
         width="30"
         y="-7.5"
         x="-15" />
    </clipPath>
    <comment
       id="comment11644">I think the above two lines give the simplest way to make the diagonals</comment>
    <radialGradient
       xlink:href="#linearGradient561"
       spreadMethod="pad"
       r="0.49999997"
       id="radialGradient565"
       gradientUnits="objectBoundingBox"
       fy="0.50000006"
       fx="0.49999994"
       cy="0.50000006"
       cx="0.49999994" />
    <linearGradient
       y2="-5035.3926"
       y1="-5035.3926"
       xlink:href="#linearGradient561"
       x2="4203.3711"
       x1="359.59262"
       spreadMethod="pad"
       id="linearGradient564"
       gradientUnits="userSpaceOnUse"
       gradientTransform="scale(0.77466167,1.2908861)" />
    <linearGradient
       y2="0"
       y1="0"
       x2="1"
       x1="0"
       spreadMethod="pad"
       id="linearGradient561"
       gradientUnits="objectBoundingBox">
      <stop
         style="stop-color:#000000;stop-opacity:1;"
         offset="0.00000000"
         id="stop562" />
      <stop
         style="stop-color:#ffffff;stop-opacity:1;"
         offset="1.00000000"
         id="stop563" />
    </linearGradient>
    <inkscape:perspective
       id="perspective3108"
       inkscape:persp3d-origin="372.04724 : 350.78739 : 1"
       inkscape:vp_z="744.09448 : 526.18109 : 1"
       inkscape:vp_y="0 : 999.99999 : 0"
       inkscape:vp_x="0 : 526.18109 : 1"
       sodipodi:type="inkscape:persp3d" />
    <inkscape:perspective
       id="perspective14"
       inkscape:persp3d-origin="531.495 : 236.22034 : 1"
       inkscape:vp_z="1062.99 : 354.33051 : 1"
       inkscape:vp_y="0 : 999.99999 : 0"
       inkscape:vp_x="0 : 354.33051 : 1"
       sodipodi:type="inkscape:persp3d" />
    <defs
       id="defs380" />
    <sodipodi:namedview
       id="namedview1340" />
    <clipPath
       id="Y">
      <rect
         id="rect23267"
         height="30"
         width="45"
         x="0"
         y="0" />
    </clipPath>
    <clipPath
       id="Z">
      <use
         id="use23264"
         xlink:href="#X"
         x="0"
         y="0"
         width="1677"
         height="1050" />
    </clipPath>
    <path
       d="M 0,0 22.5,15 45,15 M 0,30 22.5,15"
       id="W"
       inkscape:connector-curvature="0" />
    <path
       d="M 0,0 22.5,15 0,30"
       id="X"
       inkscape:connector-curvature="0" />
    <inkscape:perspective
       sodipodi:type="inkscape:persp3d"
       inkscape:vp_x="0 : 0.5 : 1"
       inkscape:vp_y="0 : 999.99999 : 0"
       inkscape:vp_z="1 : 0.5 : 1"
       inkscape:persp3d-origin="0.5 : 0.33333333 : 1"
       id="perspective3114" />
    <inkscape:perspective
       id="perspective3104"
       inkscape:persp3d-origin="413.37991 : 165.35433 : 1"
       inkscape:vp_z="826.75983 : 248.03149 : 1"
       inkscape:vp_y="0 : 999.99999 : 0"
       inkscape:vp_x="0 : 248.03149 : 1"
       sodipodi:type="inkscape:persp3d" />
    <inkscape:perspective
       id="perspective27"
       inkscape:persp3d-origin="372.04724 : 165.35433 : 1"
       inkscape:vp_z="744.09448 : 248.03149 : 1"
       inkscape:vp_y="0 : 999.99999 : 0"
       inkscape:vp_x="0 : 248.03149 : 1"
       sodipodi:type="inkscape:persp3d" />
  </defs>
  <sodipodi:namedview
     pagecolor="#ffffff"
     bordercolor="#666666"
     borderopacity="1"
     objecttolerance="10"
     gridtolerance="10"
     guidetolerance="10"
     inkscape:pageopacity="0"
     inkscape:pageshadow="2"
     inkscape:window-width="1863"
     inkscape:window-height="1056"
     id="namedview21685"
     showgrid="false"
     inkscape:snap-bbox="true"
     inkscape:bbox-paths="true"
     inkscape:bbox-nodes="true"
     inkscape:snap-bbox-edge-midpoints="true"
     inkscape:snap-bbox-midpoints="true"
     inkscape:object-paths="true"
     inkscape:snap-intersection-paths="true"
     inkscape:object-nodes="true"
     inkscape:snap-smooth-nodes="true"
     inkscape:snap-midpoints="true"
     inkscape:snap-object-midpoints="true"
     inkscape:snap-center="true"
     inkscape:zoom="1.1645451"
     inkscape:cx="60.151919"
     inkscape:cy="159.00722"
     inkscape:window-x="57"
     inkscape:window-y="24"
     inkscape:window-maximized="1"
     inkscape:current-layer="svg2"
     inkscape:snap-global="true"
     showguides="true"
     inkscape:guide-bbox="true"
     fit-margin-top="0"
     fit-margin-left="0"
     fit-margin-right="0"
     fit-margin-bottom="0" />
  <path
     d=""
     style="fill:#ffb835;stroke:#000000;stroke-width:0.05416675"
     id="path16"
     inkscape:connector-curvature="0" />
  <g
     id="layer2"
     inkscape:label="diaganal guides"
     style="display:none"
     transform="matrix(0.15522388,0,0,0.15522388,614.14006,55.25526)">
    <path
       inkscape:connector-curvature="0"
       style="fill:none;stroke:#000000;stroke-width:1px;stroke-linecap:butt;stroke-linejoin:miter;stroke-opacity:1"
       d="M 0,0 C 300,200 300,200 300,200"
       id="path3182" />
    <path
       inkscape:connector-curvature="0"
       style="fill:none;stroke:#000000;stroke-width:1px;stroke-linecap:butt;stroke-linejoin:miter;stroke-opacity:1"
       d="M 300,0 C 0,200 0,200 0,200"
       id="path3184" />
    <path
       inkscape:connector-curvature="0"
       style="fill:none;stroke:#ff00ff;stroke-width:1px;stroke-linecap:butt;stroke-linejoin:miter;stroke-opacity:1"
       d="M 87.694424,58.446654 C 108.46004,72.29557 108.46004,72.29557 108.46004,72.29557"
       id="path6076" />
    <path
       inkscape:connector-curvature="0"
       style="fill:none;stroke:#ff00ff;stroke-width:1px;stroke-linecap:butt;stroke-linejoin:miter;stroke-opacity:1"
       d="m 191.65999,127.74443 c 20.76558,13.84892 20.76558,13.84892 20.76558,13.84892"
       id="path6082" />
    <path
       inkscape:connector-curvature="0"
       style="display:inline;fill:none;stroke:#ff00ff;stroke-width:1px;stroke-linecap:butt;stroke-linejoin:miter;stroke-opacity:1"
       d="M 88.060001,141.32667 C 108.8256,127.47772 108.8256,127.47772 108.8256,127.47772"
       id="path6084" />
    <path
       inkscape:connector-curvature="0"
       style="display:inline;fill:none;stroke:#ff00ff;stroke-width:1px;stroke-linecap:butt;stroke-linejoin:miter;stroke-opacity:1"
       d="m 191.29331,72.486666 c 20.7656,-13.84895 20.7656,-13.84895 20.7656,-13.84895"
       id="path6086" />
  </g>
  <path
     id="path2160"
     d="m 1238.9469,259.5276 32.8801,0"
     style="display:none;fill:none;stroke:#000000;stroke-width:0.11994388px;stroke-linecap:butt;stroke-linejoin:miter;stroke-opacity:1"
     inkscape:connector-curvature="0" />
  <path
     id="path2165"
     d="m 1223.9473,271.46757 0,0 25.6475,-14.80761"
     style="display:none;fill:none;stroke:#000000;stroke-width:0.12px;stroke-linecap:butt;stroke-linejoin:miter;stroke-opacity:1"
     inkscape:connector-curvature="0" />
  <path
     id="path2167"
     d="m 1223.9472,247.58748 28.1431,16.20018"
     style="display:none;fill:none;stroke:#000000;stroke-width:0.1198227px;stroke-linecap:butt;stroke-linejoin:miter;stroke-opacity:1"
     inkscape:connector-curvature="0" />
  <path
     id="path3155"
     d="m 1223.8873,271.52757 2.9704,-5.14492"
     style="display:none;fill:none;stroke:#000000;stroke-width:0.12px;stroke-linecap:butt;stroke-linejoin:miter;stroke-opacity:1"
     inkscape:connector-curvature="0" />
  <path
     id="path3157"
     d="m 1223.9473,271.4676 1.14,-1.97459"
     style="display:none;fill:#000000;fill-opacity:1;fill-rule:evenodd;stroke:#ff00ff;stroke-width:0.11993925px;stroke-linecap:butt;stroke-linejoin:miter;stroke-opacity:1"
     inkscape:connector-curvature="0" />
  <path
     style="display:none;fill:#000000;fill-opacity:1;fill-rule:evenodd;stroke:#ff00ff;stroke-width:0.11417591;stroke-linecap:butt;stroke-linejoin:miter;stroke-miterlimit:4;stroke-dasharray:none;stroke-opacity:1"
     d="m 1242.2484,259.53048 2.2859,0"
     id="path3159"
     inkscape:connector-curvature="0" />
  <path
     style="display:none;fill:none;stroke:#000000;stroke-width:0.12px;stroke-linecap:butt;stroke-linejoin:miter;stroke-opacity:1"
     d="m 1223.9473,247.60265 2.9704,5.14492"
     id="path3161"
     inkscape:connector-curvature="0" />
  <path
     style="display:none;fill:#000000;fill-opacity:1;fill-rule:evenodd;stroke:#ff00ff;stroke-width:0.114231px;stroke-linecap:butt;stroke-linejoin:miter;stroke-opacity:1"
     d="m 1225.0874,249.56886 -1.143,-1.97964"
     id="path3163"
     inkscape:connector-curvature="0" />
  <path
     id="path4191"
     d="m 1223.9024,259.57255 12.4859,0"
     style="display:none;fill:none;stroke:#000000;stroke-width:0.03008685;stroke-linecap:butt;stroke-linejoin:miter;stroke-miterlimit:4;stroke-dasharray:none;stroke-opacity:1"
     inkscape:connector-curvature="0" />
  <path
     id="path4193"
     d="m 1231.4023,254.56253 0,10.05008"
     style="display:none;fill:none;stroke:#000000;stroke-width:0.02995546;stroke-linecap:butt;stroke-linejoin:miter;stroke-miterlimit:4;stroke-dasharray:none;stroke-opacity:1"
     inkscape:connector-curvature="0" />
  <path
     style="display:none;fill:none;stroke:#000000;stroke-width:0.02995546;stroke-linecap:butt;stroke-linejoin:miter;stroke-miterlimit:4;stroke-dasharray:none;stroke-opacity:1"
     d="m 1234.9555,256.03433 -7.1064,7.10648"
     id="path5165"
     inkscape:connector-curvature="0" />
  <path
     id="path5167"
     d="m 1227.8491,256.03433 7.1064,7.10648"
     style="display:none;fill:none;stroke:#000000;stroke-width:0.02995546;stroke-linecap:butt;stroke-linejoin:miter;stroke-miterlimit:4;stroke-dasharray:none;stroke-opacity:1"
     inkscape:connector-curvature="0" />
  <rect
     y="256.03452"
     x="1227.8492"
     height="7.1061039"
     width="7.1061039"
     id="rect5171"
     style="display:none;fill:none;stroke:#000000;stroke-width:0.03029604;stroke-miterlimit:4;stroke-dasharray:none;stroke-opacity:1" />
  <rect
     transform="matrix(0.70710678,0.70710678,-0.70710678,0.70710678,0,0)"
     style="display:none;fill:none;stroke:#000000;stroke-width:0.03029605;stroke-miterlimit:4;stroke-dasharray:none;stroke-opacity:1"
     id="rect7111"
     width="7.1061039"
     height="7.1061039"
     x="1050.7338"
     y="-690.72772" />
  <text
     xml:space="preserve"
     style="font-style:normal;font-variant:normal;font-weight:bold;font-stretch:normal;font-size:8px;line-height:125%;font-family:Arial;-inkscape-font-specification:'Arial Bold';letter-spacing:0px;word-spacing:0px;fill:#000000;fill-opacity:1;stroke:none"
     x="1814.4958"
     y="361.83524"
     id="text47644"
     sodipodi:linespacing="125%"><tspan
       sodipodi:role="line"
       id="tspan47646"
       x="1814.4958"
       y="361.83524" /></text>
  <rect
     style="fill:#003976"
     x="0.0067061866"
     y="-5.6843419e-14"
     width="95.553276"
     height="62.09391"
     id="rect13513" />
  <path
     style="fill:#ffffff"
     d="M 0,0.02279974 0,7.8840497 19.6255,20.52175 0,20.52175 c 0,6.94911 0,13.89821 0,20.84732 l 20.08457,0 L 0,54.05645 0,61.9177 11.13262,62.11671 39.82478,43.7573 l 0,18.35941 15.91459,0 0,-18.16039 28.19489,18.16039 11.20901,0 0.42088,-7.91108 -19.89323,-12.83656 19.89323,0 0,-20.84732 -19.47247,0 19.47247,-12.8367203 0,-7.51287996 -11.28564,-0.14967 -28.53914,18.21024026 0,-18.21024026 -15.91459,0 0,18.16040026 L 11.85955,0.02247974 Z"
     id="polygon13517"
     inkscape:connector-curvature="0"
     sodipodi:nodetypes="ccccccccccccccccccccccccccccc" />
  <polygon
     id="polygon13525"
     points="-63.098,608.481 228.858,461.243 154.041,461.243 -138.031,607.179 -138.031,608.481 "
     style="fill:#e03a3e"
     transform="matrix(0.10851742,0,0,0.14113407,14.98036,-23.78359)" />
  <polygon
     id="polygon13527"
     points="523.711,462.388 448.893,462.388 738.579,608.481 742.503,608.481 742.503,571.71 "
     style="fill:#e03a3e"
     transform="matrix(0.10851742,0,0,0.14113407,14.98036,-23.78359)" />
  <polygon
     id="polygon13529"
     points="-138.031,168.849 -138.031,207.579 76.181,314.611 150.998,314.611 "
     style="fill:#e03a3e"
     transform="matrix(0.10851742,0,0,0.14113407,14.98036,-23.78359)" />
  <polygon
     id="polygon13531"
     points="742.503,168.518 667.608,168.518 380.193,313.467 455.011,313.467 742.503,169.818 "
     style="fill:#e03a3e"
     transform="matrix(0.10851742,0,0,0.14113407,14.98036,-23.78359)" />
  <polygon
     id="polygon13533"
     points="742.503,431.079 742.503,345.587 357.27,345.587 357.27,168.518 247.202,168.518 247.202,345.587 -138.031,345.587 -138.031,431.079 247.202,431.079 247.202,608.481 357.27,608.481 357.27,431.079 "
     style="fill:#e03a3e"
     transform="matrix(0.10851742,0,0,0.14113407,14.98036,-23.78359)" />
</svg>
